<?xml version="1.0" standalone="no"?>
<!DOCTYPE svg PUBLIC "-//W3C//DTD SVG 20010904//EN"
 "http://www.w3.org/TR/2001/REC-SVG-20010904/DTD/svg10.dtd">
<svg version="1.0" xmlns="http://www.w3.org/2000/svg"
 width="1437.000000pt" height="1360.000000pt" viewBox="0 0 1437.000000 1360.000000"
 preserveAspectRatio="xMidYMid meet">
<metadata>
Created by potrace 1.12, written by Peter Selinger 2001-2015
</metadata>
<g transform="translate(0.000000,1360.000000) scale(0.100000,-0.100000)"
fill="#000000" stroke="none">
<path d="M7610 13005 c-25 -7 -65 -21 -90 -31 -51 -21 -184 -26 -320 -13 -324
30 -746 33 -940 5 -230 -32 -424 -83 -575 -151 -32 -15 -109 -38 -170 -51 -62
-14 -156 -44 -215 -70 -58 -25 -127 -55 -155 -67 -27 -12 -72 -40 -100 -62
-49 -40 -82 -61 -200 -125 -33 -18 -63 -38 -67 -44 -4 -6 -8 -8 -8 -3 0 15
-383 -187 -448 -237 -60 -46 -197 -136 -207 -136 -7 0 -202 -124 -294 -187
-96 -66 -190 -138 -274 -212 -26 -22 -74 -54 -109 -73 -62 -33 -140 -104 -211
-190 -21 -26 -63 -61 -93 -78 -60 -34 -241 -206 -236 -224 2 -6 0 -8 -4 -3
-18 17 -433 -410 -416 -428 4 -5 2 -5 -4 -2 -15 9 -342 -325 -419 -428 -86
-114 -149 -223 -178 -307 -14 -40 -69 -248 -121 -463 -53 -214 -108 -430 -121
-480 -71 -259 -118 -502 -130 -675 -11 -165 -26 -266 -65 -440 -21 -96 -42
-204 -45 -240 -4 -36 -23 -118 -41 -182 -19 -64 -45 -186 -59 -270 -39 -247
-143 -984 -154 -1098 -6 -58 -13 -130 -16 -160 -3 -30 -8 -192 -11 -360 -3
-203 -10 -335 -21 -395 -10 -61 -16 -189 -20 -400 -5 -307 -5 -312 27 -534 19
-141 32 -274 34 -360 1 -107 6 -143 20 -169 15 -28 15 -39 5 -69 -8 -25 -10
-74 -6 -152 9 -169 32 -476 42 -566 2 -22 7 -76 10 -120 3 -44 8 -100 10 -125
6 -54 10 -103 25 -275 6 -71 20 -193 30 -270 10 -77 22 -192 25 -255 19 -369
56 -604 110 -697 51 -86 114 -122 420 -244 154 -61 305 -123 335 -136 30 -14
84 -39 120 -55 123 -56 257 -98 314 -98 15 0 64 -15 109 -34 109 -45 128 -50
293 -82 134 -26 142 -26 174 -11 29 15 39 15 89 3 62 -16 144 -23 366 -32
l150 -6 24 26 25 26 -13 193 c-7 105 -14 217 -16 247 -2 30 -7 98 -10 150 -3
52 -8 129 -11 171 -10 128 24 161 181 173 44 4 103 9 130 11 69 6 176 14 480
35 270 18 1015 25 1015 8 0 -4 4 -8 9 -8 4 0 102 -46 217 -101 234 -113 308
-147 344 -159 385 -123 436 -135 615 -150 77 -6 158 -13 180 -16 124 -15 357
-16 447 -1 51 9 138 18 193 21 102 4 144 13 550 121 94 25 256 66 360 91 208
50 220 51 495 25 58 -6 141 -13 185 -16 44 -4 96 -8 115 -10 19 -2 91 -9 160
-14 69 -6 148 -13 175 -16 28 -2 131 -11 230 -20 178 -15 258 -22 345 -30 25
-2 126 -12 225 -20 230 -21 229 -20 221 -123 -5 -70 -35 -227 -82 -434 -14
-62 -15 -83 -6 -103 7 -15 16 -24 21 -20 5 3 12 1 16 -5 7 -11 65 -6 230 20
66 11 251 40 410 64 160 25 299 47 310 50 11 2 38 7 60 11 22 5 43 8 46 7 4
-1 54 8 110 19 57 11 120 22 139 25 150 23 520 121 635 169 73 30 151 60 305
117 184 67 221 84 300 138 77 53 120 95 179 173 56 75 59 90 35 175 -14 49
-16 89 -10 287 14 470 24 674 36 780 5 44 12 100 14 125 3 25 16 135 30 245
14 110 28 241 31 290 4 50 8 100 10 112 4 26 20 700 19 793 -8 526 -23 1225
-29 1275 -2 22 -7 74 -10 115 -10 122 -15 167 -36 320 -46 336 -55 438 -64
700 -4 135 -14 198 -121 730 -45 224 -149 612 -166 618 -4 2 -6 7 -3 12 2 4
-18 72 -46 151 -94 264 -175 503 -193 569 -10 36 -23 76 -29 90 -5 14 -11 32
-12 40 -1 8 -29 107 -63 220 -33 113 -81 282 -106 375 -108 404 -231 727 -341
893 -19 30 -35 55 -35 57 0 2 -59 97 -131 212 -73 114 -163 258 -201 318 -152
242 -194 307 -221 339 -24 31 -257 198 -807 578 -335 231 -462 314 -565 368
-110 58 -483 259 -610 328 -263 143 -545 269 -767 341 -242 78 -726 194 -948
226 -63 9 -139 23 -168 32 -72 20 -148 23 -202 8z m-2012 -2721 c224 -114 516
-262 650 -331 133 -68 242 -120 242 -116 0 4 4 3 8 -3 4 -6 93 -54 197 -108
158 -82 555 -294 760 -406 68 -38 498 -276 1030 -572 242 -135 526 -291 630
-348 105 -57 216 -121 248 -142 68 -46 72 -67 27 -135 -16 -24 -30 -46 -30
-49 0 -2 -29 -35 -65 -73 -120 -126 -246 -166 -336 -107 -21 14 -45 39 -53 55
-37 72 -115 107 -210 96 -34 -4 -97 -10 -141 -15 -76 -7 -81 -9 -113 -46 -50
-58 -112 -190 -116 -250 -3 -28 -14 -67 -26 -87 -31 -52 -39 -159 -47 -628 -7
-452 -6 -458 58 -729 50 -210 64 -252 94 -280 13 -13 32 -45 41 -72 31 -94
109 -154 229 -178 72 -14 162 -2 224 29 45 23 103 101 151 204 30 61 30 62 25
212 -2 82 -7 296 -10 475 -3 179 -10 391 -16 472 -6 81 -8 152 -5 156 3 5 70
14 149 21 141 13 144 13 187 -9 54 -28 91 -28 177 0 117 39 147 60 184 133 22
42 19 69 -14 105 -26 28 -71 28 -118 -1 -157 -95 -169 -99 -251 -76 l-38 10
54 107 c62 122 69 143 91 266 15 81 24 108 73 219 10 23 25 40 39 43 17 5 173
-76 640 -332 340 -185 756 -412 924 -503 407 -221 403 -216 416 -520 8 -173
10 -454 4 -531 -2 -25 0 -79 4 -120 6 -56 2 -110 -14 -215 -38 -258 -84 -630
-106 -870 -8 -90 -53 -238 -110 -361 -35 -77 -55 -141 -55 -179 0 -25 -56
-147 -204 -443 -192 -383 -210 -414 -296 -522 -112 -140 -218 -250 -415 -428
-82 -74 -166 -150 -185 -168 -19 -17 -87 -78 -150 -135 -63 -57 -120 -108
-126 -114 -17 -15 -162 -145 -229 -205 -33 -30 -65 -59 -71 -64 -6 -6 -39 -36
-74 -66 -35 -30 -75 -66 -89 -79 -30 -28 -256 -195 -390 -289 -50 -35 -91 -68
-91 -73 0 -5 -5 -9 -11 -9 -6 0 -31 -17 -57 -39 -26 -21 -58 -44 -72 -51 -14
-7 -69 -42 -123 -77 -54 -36 -136 -80 -183 -99 -49 -20 -108 -54 -140 -79 -78
-64 -167 -106 -371 -176 -240 -82 -257 -88 -338 -105 -184 -40 -528 -63 -695
-46 -105 10 -169 34 -300 110 -200 118 -406 206 -628 271 -79 23 -173 55 -210
72 -37 16 -107 39 -156 49 -97 22 -109 28 -220 113 -41 32 -129 86 -195 122
-66 35 -154 89 -196 120 -76 56 -289 240 -334 289 -13 14 -29 23 -35 19 -6 -3
-9 -4 -6 0 3 3 -58 70 -135 149 -77 80 -183 195 -235 258 -52 63 -146 166
-209 229 -62 64 -130 139 -150 166 -244 328 -216 281 -411 700 -100 215 -195
424 -211 466 -54 147 -76 349 -58 539 20 217 35 489 49 890 6 161 19 350 30
435 10 83 24 204 29 270 6 66 24 199 41 295 16 96 39 254 50 350 31 265 84
553 186 1005 25 110 47 209 48 220 2 11 6 27 9 35 4 8 22 79 42 157 55 222
116 375 175 443 17 19 81 118 142 220 60 102 136 221 167 265 32 44 117 168
188 275 119 177 252 347 301 382 10 7 32 33 49 58 17 25 59 72 94 105 35 33
81 81 102 106 47 58 87 78 155 79 49 0 82 -15 460 -206z m3611 -2560 c12 -15
21 -35 21 -45 0 -18 -104 -117 -147 -140 -20 -11 -26 -9 -49 17 -56 63 -59 72
-37 102 24 33 129 91 165 92 17 0 34 -9 47 -26z"/>
<path d="M4735 8327 c-101 -59 -115 -71 -136 -113 -26 -55 -30 -148 -10 -274
17 -110 16 -172 -5 -275 -18 -91 -14 -143 14 -168 9 -8 101 -57 204 -107 130
-64 185 -96 182 -105 -3 -8 -12 -11 -20 -8 -16 6 -56 -25 -49 -38 3 -4 1 -11
-5 -14 -6 -4 -24 -33 -41 -66 -16 -33 -36 -62 -44 -65 -8 -3 -87 30 -176 75
-195 98 -242 104 -255 35 -5 -25 -1 -40 16 -61 35 -45 86 -75 141 -84 31 -5
78 -24 118 -48 73 -43 147 -71 189 -71 42 1 103 33 155 83 56 55 80 64 111 44
29 -20 36 -48 80 -332 20 -126 38 -241 41 -255 32 -188 60 -432 69 -605 7
-121 26 -181 74 -231 69 -72 168 -106 308 -106 136 0 229 36 307 119 50 53
124 197 148 290 19 71 20 97 14 288 -3 116 -8 239 -10 275 -2 36 -7 135 -10
220 -4 85 -8 166 -10 180 -2 14 -7 57 -10 95 -7 85 -37 210 -66 273 -11 26
-23 62 -25 80 -17 133 -143 338 -285 466 -67 60 -113 71 -232 57 -113 -13
-166 -31 -217 -71 -68 -54 -197 -63 -280 -20 -19 10 -76 54 -126 98 -135 119
-157 180 -119 330 14 52 14 69 5 93 -14 32 -16 33 -45 16z m-35 -544 c0 -5 7
-16 14 -26 12 -15 17 -16 34 -6 18 11 26 8 66 -25 25 -20 46 -34 46 -29 0 4 4
3 8 -3 17 -27 149 -78 222 -86 21 -3 25 -8 25 -33 0 -26 -7 -33 -50 -54 -70
-35 -140 -31 -220 10 -33 17 -72 42 -86 56 -36 33 -92 157 -84 183 6 19 25 28
25 13z"/>
<path d="M8650 5170 c-217 -15 -278 -22 -385 -40 -113 -19 -309 -48 -380 -55
-22 -3 -62 -7 -90 -10 -184 -20 -214 -23 -575 -50 -234 -18 -309 -24 -375 -30
-27 -2 -81 -7 -120 -10 -38 -3 -90 -8 -115 -10 -25 -3 -70 -7 -100 -10 -147
-13 -288 -26 -315 -30 -16 -2 -66 -7 -110 -10 -44 -3 -91 -8 -105 -10 -14 -3
-54 -7 -90 -10 -36 -3 -76 -8 -90 -10 -14 -2 -52 -7 -85 -10 -33 -3 -76 -7
-95 -10 -19 -2 -64 -7 -100 -10 -211 -18 -227 -34 -216 -218 10 -182 25 -231
130 -442 52 -104 118 -233 147 -285 28 -52 65 -120 81 -150 16 -30 37 -61 46
-67 9 -7 13 -13 9 -13 -4 0 32 -53 81 -117 49 -65 97 -139 106 -164 13 -36 52
-82 174 -207 86 -88 182 -176 212 -195 56 -35 153 -79 430 -195 l155 -65 250
-9 c138 -4 257 -9 265 -10 41 -4 173 14 240 33 41 11 142 52 225 91 179 83
211 97 378 154 278 96 419 193 746 515 90 88 193 213 184 222 -3 4 -1 7 5 7
14 0 103 148 135 225 14 33 35 94 47 135 12 41 53 172 92 290 79 243 107 359
108 443 0 71 -4 78 -95 186 -89 105 -112 126 -150 141 -36 14 -494 21 -655 10z
m279 -533 c42 -14 66 -28 71 -42 14 -39 -65 -277 -152 -454 -55 -112 -144
-239 -185 -264 -7 -5 -10 -13 -7 -19 4 -6 3 -8 -3 -5 -6 4 -19 -3 -29 -14 -11
-12 -64 -53 -119 -92 -110 -77 -264 -194 -280 -211 -76 -83 -502 -296 -693
-346 -170 -45 -276 -37 -530 36 -194 56 -306 97 -354 129 -21 14 -40 25 -44
25 -4 0 -88 83 -188 184 -99 101 -209 202 -243 225 -81 53 -104 86 -146 201
-20 52 -53 140 -74 196 -68 172 -74 222 -32 244 10 6 139 19 286 30 148 11
282 21 298 22 17 1 36 -2 43 -6 8 -5 41 -5 75 -2 34 3 98 9 142 12 286 19 980
76 1030 84 55 10 275 31 319 31 10 0 78 12 150 26 100 20 178 27 331 32 230 8
248 7 334 -22z"/>
</g>
</svg>
